<svg width="61" height="50" viewBox="0 0 61 50" fill="none" xmlns="http://www.w3.org/2000/svg">
<path d="M35.3112 1.36386C35.3567 1.31776 36.7491 0.965258 38.4052 0.580808C40.0616 0.196359 41.4347 -0.0594401 41.4568 0.0119607C41.4786 0.083576 41.65 1.24464 41.8374 2.59225C42.2139 5.29841 43.1253 8.45806 44.0992 10.4341C47.135 16.5926 52.5817 20.6704 59.1878 21.7302L60.87 22.0002L60.87 24.7207L60.87 27.4415L59.3453 27.6998C49.356 29.3924 42.8435 36.9361 41.6252 48.2251C41.5457 48.9623 41.4507 49.5652 41.4141 49.5652C41.0772 49.5652 35.4948 48.2065 35.3893 48.0988C35.3129 48.021 35.3697 47.3299 35.5156 46.5634C37.131 38.0752 41.7562 31.1682 47.7583 28.2803L49.1981 27.5875L19.5914 27.5332L0.869993 27.4988L0.869993 21.9929L19.6395 21.9584L49.1764 21.9039L47.3588 20.9738C42.6433 18.561 38.91 13.8279 36.7114 7.47495C36.085 5.66506 35.1396 1.53882 35.3112 1.36386Z" fill="white"/>
</svg>
